<svg width="32" height="32" viewBox="0 0 32 32" fill="none" xmlns="http://www.w3.org/2000/svg">
<path d="M23.2 25.6663H8.8C6.8 25.6663 6 24.813 6 22.693V21.3063C6 19.1863 6.8 18.333 8.8 18.333H23.2C25.2 18.333 26 19.1863 26 21.3063V22.693C26 24.813 25.2 25.6663 23.2 25.6663Z" stroke="#FEDC5A" stroke-width="2" stroke-linecap="round" stroke-linejoin="round"/>
<path d="M20.5327 14.3333H11.466C9.46602 14.3333 8.66602 13.48 8.66602 11.36V9.97333C8.66602 7.85333 9.46602 7 11.466 7H20.5327C22.5327 7 23.3327 7.85333 23.3327 9.97333V11.36C23.3327 13.48 22.5327 14.3333 20.5327 14.3333Z" stroke="#FEDC5A" stroke-width="2" stroke-linecap="round" stroke-linejoin="round"/>
<path d="M16 29.3328V26.1328" stroke="#FEDC5A" stroke-width="2" stroke-linecap="round" stroke-linejoin="round"/>
<path d="M16 17.3337V14.667" stroke="#FEDC5A" stroke-width="2" stroke-linecap="round" stroke-linejoin="round"/>
<path d="M16 2.66699V6.25366" stroke="#292D32" stroke-width="2" stroke-linecap="round" stroke-linejoin="round"/>
</svg>
