<svg width="283" height="36" viewBox="0 0 283 36" fill="none" xmlns="http://www.w3.org/2000/svg">
<rect x="0.986328" y="0.933594" width="281.466" height="34.9337" rx="3.99242" fill="white"/>
<g clip-path="url(#clip0_1358_24738)">
<path d="M83.8854 21.7109C82.8624 21.7109 81.8726 21.5446 80.9493 21.2452C80.6582 21.1454 80.3338 21.2202 80.1093 21.4448L78.8034 23.0833C76.4495 21.9605 74.2454 19.8395 73.0726 17.4025L74.6945 16.0217C74.9191 15.7888 74.9856 15.4645 74.8942 15.1734C74.5864 14.2501 74.4284 13.2603 74.4284 12.2373C74.4284 11.7881 74.0541 11.4138 73.6049 11.4138H70.7271C70.2779 11.4138 69.7373 11.6134 69.7373 12.2373C69.7373 19.9643 76.1667 26.3854 83.8854 26.3854C84.476 26.3854 84.7089 25.8614 84.7089 25.4039V22.5344C84.7089 22.0852 84.3346 21.7109 83.8854 21.7109Z" fill="#0096DE"/>
</g>
<path d="M99.4168 20.3081H100.914C100.836 21.0255 100.631 21.6675 100.298 22.2342C99.9652 22.8008 99.4947 23.2505 98.8865 23.5832C98.2783 23.9107 97.5193 24.0744 96.6096 24.0744C95.9442 24.0744 95.3386 23.9496 94.7927 23.7001C94.2521 23.4506 93.7868 23.0971 93.3969 22.6396C93.007 22.177 92.7055 21.6233 92.4924 20.9787C92.2845 20.3289 92.1805 19.6063 92.1805 18.811V17.6803C92.1805 16.8849 92.2845 16.1649 92.4924 15.5203C92.7055 14.8705 93.0096 14.3143 93.4047 13.8516C93.805 13.389 94.2859 13.0329 94.8473 12.7833C95.4087 12.5338 96.0403 12.409 96.7421 12.409C97.5999 12.409 98.3251 12.5702 98.9177 12.8925C99.5103 13.2148 99.9704 13.6619 100.298 14.2337C100.631 14.8003 100.836 15.4579 100.914 16.2065H99.4168C99.344 15.6763 99.2088 15.2214 99.0113 14.8419C98.8137 14.4572 98.533 14.1609 98.1691 13.953C97.8052 13.7451 97.3296 13.6411 96.7421 13.6411C96.2379 13.6411 95.7934 13.7373 95.4087 13.9296C95.0292 14.1219 94.7095 14.3949 94.4496 14.7484C94.1949 15.1019 94.0025 15.5255 93.8726 16.0194C93.7426 16.5132 93.6776 17.0617 93.6776 17.6647V18.811C93.6776 19.3672 93.7348 19.8896 93.8492 20.3783C93.9688 20.867 94.1481 21.2958 94.3872 21.6649C94.6264 22.034 94.9305 22.3251 95.2996 22.5383C95.6687 22.7462 96.1053 22.8502 96.6096 22.8502C97.249 22.8502 97.7584 22.7488 98.1379 22.5461C98.5174 22.3433 98.8033 22.0522 98.9957 21.6727C99.1932 21.2932 99.3336 20.8384 99.4168 20.3081ZM102.364 19.7935V19.6141C102.364 19.0059 102.453 18.4419 102.629 17.922C102.806 17.397 103.061 16.9421 103.394 16.5574C103.726 16.1675 104.129 15.866 104.602 15.6529C105.075 15.4346 105.606 15.3254 106.193 15.3254C106.786 15.3254 107.318 15.4346 107.791 15.6529C108.27 15.866 108.675 16.1675 109.008 16.5574C109.346 16.9421 109.603 17.397 109.78 17.922C109.957 18.4419 110.045 19.0059 110.045 19.6141V19.7935C110.045 20.4017 109.957 20.9657 109.78 21.4856C109.603 22.0054 109.346 22.4603 109.008 22.8502C108.675 23.2349 108.272 23.5364 107.799 23.7547C107.331 23.9678 106.801 24.0744 106.209 24.0744C105.616 24.0744 105.083 23.9678 104.61 23.7547C104.137 23.5364 103.731 23.2349 103.394 22.8502C103.061 22.4603 102.806 22.0054 102.629 21.4856C102.453 20.9657 102.364 20.4017 102.364 19.7935ZM103.807 19.6141V19.7935C103.807 20.2145 103.856 20.6122 103.955 20.9865C104.054 21.3556 104.202 21.6831 104.399 21.969C104.602 22.2549 104.854 22.4811 105.156 22.6474C105.457 22.8086 105.808 22.8892 106.209 22.8892C106.604 22.8892 106.949 22.8086 107.246 22.6474C107.547 22.4811 107.797 22.2549 107.994 21.969C108.192 21.6831 108.34 21.3556 108.439 20.9865C108.543 20.6122 108.595 20.2145 108.595 19.7935V19.6141C108.595 19.1982 108.543 18.8058 108.439 18.4367C108.34 18.0624 108.189 17.7323 107.986 17.4464C107.789 17.1552 107.539 16.9265 107.238 16.7602C106.942 16.5938 106.593 16.5106 106.193 16.5106C105.798 16.5106 105.45 16.5938 105.148 16.7602C104.852 16.9265 104.602 17.1552 104.399 17.4464C104.202 17.7323 104.054 18.0624 103.955 18.4367C103.856 18.8058 103.807 19.1982 103.807 19.6141ZM113.297 17.2826V23.9185H111.854V15.4813H113.219L113.297 17.2826ZM112.954 19.3802L112.353 19.3568C112.358 18.7798 112.444 18.2469 112.61 17.7583C112.777 17.2644 113.011 16.8355 113.312 16.4717C113.614 16.1078 113.972 15.827 114.388 15.6295C114.809 15.4268 115.275 15.3254 115.784 15.3254C116.2 15.3254 116.574 15.3826 116.907 15.4969C117.24 15.6061 117.523 15.7829 117.757 16.0272C117.996 16.2715 118.178 16.5886 118.303 16.9785C118.428 17.3632 118.49 17.8336 118.49 18.3899V23.9185H117.04V18.3743C117.04 17.9324 116.975 17.5789 116.845 17.3138C116.715 17.0435 116.525 16.8485 116.275 16.729C116.026 16.6042 115.719 16.5418 115.355 16.5418C114.997 16.5418 114.669 16.6172 114.373 16.768C114.082 16.9187 113.83 17.1267 113.616 17.3918C113.408 17.6569 113.245 17.961 113.125 18.3041C113.011 18.642 112.954 19.0007 112.954 19.3802ZM124.213 15.4813V16.5886H119.652V15.4813H124.213ZM121.196 13.4305H122.638V21.8287C122.638 22.1146 122.682 22.3303 122.771 22.4759C122.859 22.6214 122.974 22.7176 123.114 22.7644C123.254 22.8112 123.405 22.8346 123.566 22.8346C123.686 22.8346 123.811 22.8242 123.941 22.8034C124.076 22.7774 124.177 22.7566 124.245 22.741L124.252 23.9185C124.138 23.9548 123.987 23.9886 123.8 24.0198C123.618 24.0562 123.397 24.0744 123.137 24.0744C122.784 24.0744 122.459 24.0042 122.163 23.8639C121.866 23.7235 121.63 23.4896 121.453 23.1621C121.282 22.8294 121.196 22.3823 121.196 21.8209V13.4305ZM130.88 22.4759V18.1326C130.88 17.7999 130.813 17.5113 130.678 17.267C130.548 17.0175 130.35 16.8251 130.085 16.69C129.82 16.5548 129.492 16.4872 129.103 16.4872C128.739 16.4872 128.419 16.5496 128.143 16.6744C127.873 16.7992 127.66 16.9629 127.504 17.1656C127.353 17.3684 127.278 17.5867 127.278 17.8207H125.835C125.835 17.5191 125.913 17.2202 126.069 16.9239C126.225 16.6276 126.449 16.3599 126.74 16.1208C127.036 15.8764 127.39 15.6841 127.8 15.5437C128.216 15.3982 128.679 15.3254 129.188 15.3254C129.802 15.3254 130.342 15.4294 130.81 15.6373C131.283 15.8452 131.652 16.1597 131.918 16.5808C132.188 16.9967 132.323 17.5191 132.323 18.1482V22.0782C132.323 22.3589 132.346 22.6578 132.393 22.9749C132.445 23.292 132.521 23.565 132.619 23.7937V23.9185H131.114C131.042 23.7521 130.984 23.5312 130.943 23.2557C130.901 22.9749 130.88 22.715 130.88 22.4759ZM131.13 18.8032L131.146 19.8169H129.687C129.277 19.8169 128.91 19.8507 128.588 19.9182C128.266 19.9806 127.995 20.0768 127.777 20.2068C127.559 20.3367 127.392 20.5005 127.278 20.698C127.164 20.8903 127.106 21.1165 127.106 21.3764C127.106 21.6415 127.166 21.8833 127.286 22.1016C127.405 22.3199 127.585 22.4941 127.824 22.624C128.068 22.7488 128.367 22.8112 128.721 22.8112C129.162 22.8112 129.552 22.7176 129.89 22.5305C130.228 22.3433 130.496 22.1146 130.693 21.8443C130.896 21.5739 131.005 21.3114 131.021 21.0567L131.637 21.7507C131.6 21.969 131.502 22.2108 131.341 22.4759C131.179 22.741 130.964 22.9957 130.693 23.2401C130.428 23.4792 130.111 23.6793 129.742 23.8405C129.378 23.9964 128.967 24.0744 128.51 24.0744C127.938 24.0744 127.436 23.9626 127.005 23.7391C126.579 23.5156 126.246 23.2167 126.007 22.8424C125.773 22.4629 125.656 22.0392 125.656 21.5713C125.656 21.1191 125.744 20.7214 125.921 20.3783C126.098 20.03 126.353 19.7415 126.685 19.5128C127.018 19.2788 127.418 19.1021 127.886 18.9825C128.354 18.8629 128.876 18.8032 129.454 18.8032H131.13ZM137.969 22.8892C138.312 22.8892 138.629 22.819 138.92 22.6786C139.211 22.5383 139.45 22.3459 139.637 22.1016C139.824 21.8521 139.931 21.5687 139.957 21.2516H141.329C141.303 21.7507 141.134 22.216 140.823 22.6474C140.516 23.0737 140.113 23.4194 139.614 23.6845C139.115 23.9444 138.566 24.0744 137.969 24.0744C137.334 24.0744 136.781 23.9626 136.308 23.7391C135.84 23.5156 135.45 23.2089 135.138 22.819C134.831 22.4291 134.6 21.982 134.444 21.4778C134.293 20.9683 134.218 20.4303 134.218 19.8637V19.5361C134.218 18.9695 134.293 18.4341 134.444 17.9298C134.6 17.4204 134.831 16.9707 135.138 16.5808C135.45 16.1909 135.84 15.8842 136.308 15.6607C136.781 15.4372 137.334 15.3254 137.969 15.3254C138.629 15.3254 139.206 15.4605 139.7 15.7309C140.194 15.996 140.581 16.3599 140.862 16.8225C141.147 17.28 141.303 17.7999 141.329 18.3821H139.957C139.931 18.0338 139.832 17.7193 139.661 17.4386C139.494 17.1578 139.266 16.9343 138.974 16.768C138.689 16.5964 138.353 16.5106 137.969 16.5106C137.527 16.5106 137.155 16.599 136.854 16.7758C136.557 16.9473 136.321 17.1812 136.144 17.4776C135.972 17.7687 135.848 18.0936 135.77 18.4523C135.697 18.8058 135.66 19.1671 135.66 19.5361V19.8637C135.66 20.2327 135.697 20.5966 135.77 20.9553C135.842 21.314 135.965 21.6389 136.136 21.93C136.313 22.2212 136.549 22.4551 136.846 22.6318C137.147 22.8034 137.522 22.8892 137.969 22.8892ZM146.484 15.4813V16.5886H141.922V15.4813H146.484ZM143.466 13.4305H144.909V21.8287C144.909 22.1146 144.953 22.3303 145.041 22.4759C145.129 22.6214 145.244 22.7176 145.384 22.7644C145.525 22.8112 145.675 22.8346 145.836 22.8346C145.956 22.8346 146.081 22.8242 146.211 22.8034C146.346 22.7774 146.447 22.7566 146.515 22.741L146.523 23.9185C146.408 23.9548 146.258 23.9886 146.07 24.0198C145.888 24.0562 145.668 24.0744 145.408 24.0744C145.054 24.0744 144.729 24.0042 144.433 23.8639C144.137 23.7235 143.9 23.4896 143.723 23.1621C143.552 22.8294 143.466 22.3823 143.466 21.8209V13.4305ZM157.299 21.969V15.4813H158.749V23.9185H157.369L157.299 21.969ZM157.572 20.1912L158.172 20.1756C158.172 20.737 158.113 21.2568 157.993 21.7351C157.879 22.2082 157.692 22.6188 157.432 22.9671C157.172 23.3154 156.831 23.5884 156.41 23.7859C155.989 23.9782 155.477 24.0744 154.874 24.0744C154.463 24.0744 154.086 24.0146 153.743 23.8951C153.405 23.7755 153.114 23.591 152.87 23.3414C152.626 23.0919 152.436 22.767 152.301 22.3667C152.171 21.9664 152.106 21.4856 152.106 20.9241V15.4813H153.548V20.9397C153.548 21.3192 153.59 21.6337 153.673 21.8833C153.762 22.1276 153.879 22.3225 154.024 22.4681C154.175 22.6084 154.341 22.7072 154.523 22.7644C154.71 22.8216 154.903 22.8502 155.1 22.8502C155.714 22.8502 156.2 22.7332 156.558 22.4993C156.917 22.2601 157.174 21.9404 157.33 21.5402C157.491 21.1347 157.572 20.685 157.572 20.1912ZM165.861 21.6805C165.861 21.4726 165.814 21.2802 165.721 21.1035C165.632 20.9215 165.448 20.7578 165.167 20.6122C164.891 20.4615 164.476 20.3315 163.919 20.2223C163.451 20.1236 163.028 20.0066 162.648 19.8714C162.274 19.7363 161.954 19.5725 161.689 19.3802C161.429 19.1879 161.229 18.9617 161.089 18.7018C160.948 18.4419 160.878 18.1378 160.878 17.7895C160.878 17.4568 160.951 17.1423 161.097 16.8459C161.247 16.5496 161.458 16.2871 161.728 16.0584C162.004 15.8296 162.334 15.6503 162.719 15.5203C163.103 15.3904 163.532 15.3254 164.005 15.3254C164.681 15.3254 165.258 15.445 165.736 15.6841C166.214 15.9232 166.581 16.2429 166.836 16.6432C167.09 17.0383 167.218 17.4776 167.218 17.961H165.775C165.775 17.7271 165.705 17.5009 165.565 17.2826C165.43 17.0591 165.229 16.8745 164.964 16.729C164.704 16.5834 164.385 16.5106 164.005 16.5106C163.605 16.5106 163.28 16.573 163.03 16.6978C162.786 16.8173 162.607 16.9707 162.492 17.1578C162.383 17.345 162.329 17.5425 162.329 17.7505C162.329 17.9064 162.355 18.0468 162.407 18.1715C162.464 18.2911 162.563 18.4029 162.703 18.5069C162.843 18.6056 163.041 18.6992 163.296 18.7876C163.55 18.8759 163.875 18.9643 164.27 19.0527C164.962 19.2086 165.531 19.3958 165.978 19.6141C166.425 19.8325 166.758 20.1002 166.976 20.4173C167.194 20.7344 167.304 21.1191 167.304 21.5713C167.304 21.9404 167.226 22.2783 167.07 22.585C166.919 22.8918 166.698 23.1569 166.407 23.3804C166.121 23.5988 165.778 23.7703 165.378 23.8951C164.982 24.0146 164.538 24.0744 164.044 24.0744C163.301 24.0744 162.672 23.9419 162.157 23.6767C161.642 23.4116 161.253 23.0685 160.987 22.6474C160.722 22.2264 160.59 21.7819 160.59 21.314H162.04C162.061 21.7091 162.175 22.0236 162.383 22.2575C162.591 22.4863 162.846 22.65 163.147 22.7488C163.449 22.8424 163.748 22.8892 164.044 22.8892C164.439 22.8892 164.769 22.8372 165.034 22.7332C165.305 22.6292 165.51 22.4863 165.65 22.3043C165.791 22.1224 165.861 21.9144 165.861 21.6805ZM178.135 22.4759V18.1326C178.135 17.7999 178.067 17.5113 177.932 17.267C177.802 17.0175 177.604 16.8251 177.339 16.69C177.074 16.5548 176.747 16.4872 176.357 16.4872C175.993 16.4872 175.673 16.5496 175.398 16.6744C175.127 16.7992 174.914 16.9629 174.758 17.1656C174.607 17.3684 174.532 17.5867 174.532 17.8207H173.089C173.089 17.5191 173.167 17.2202 173.323 16.9239C173.479 16.6276 173.703 16.3599 173.994 16.1208C174.29 15.8764 174.644 15.6841 175.054 15.5437C175.47 15.3982 175.933 15.3254 176.442 15.3254C177.056 15.3254 177.597 15.4294 178.064 15.6373C178.537 15.8452 178.907 16.1597 179.172 16.5808C179.442 16.9967 179.577 17.5191 179.577 18.1482V22.0782C179.577 22.3589 179.601 22.6578 179.647 22.9749C179.699 23.292 179.775 23.565 179.873 23.7937V23.9185H178.368C178.296 23.7521 178.239 23.5312 178.197 23.2557C178.155 22.9749 178.135 22.715 178.135 22.4759ZM178.384 18.8032L178.4 19.8169H176.942C176.531 19.8169 176.164 19.8507 175.842 19.9182C175.52 19.9806 175.249 20.0768 175.031 20.2068C174.813 20.3367 174.646 20.5005 174.532 20.698C174.418 20.8903 174.36 21.1165 174.36 21.3764C174.36 21.6415 174.42 21.8833 174.54 22.1016C174.659 22.3199 174.839 22.4941 175.078 22.624C175.322 22.7488 175.621 22.8112 175.975 22.8112C176.416 22.8112 176.806 22.7176 177.144 22.5305C177.482 22.3433 177.75 22.1146 177.947 21.8443C178.15 21.5739 178.259 21.3114 178.275 21.0567L178.891 21.7507C178.855 21.969 178.756 22.2108 178.595 22.4759C178.433 22.741 178.218 22.9957 177.947 23.2401C177.682 23.4792 177.365 23.6793 176.996 23.8405C176.632 23.9964 176.222 24.0744 175.764 24.0744C175.192 24.0744 174.691 23.9626 174.259 23.7391C173.833 23.5156 173.5 23.2167 173.261 22.8424C173.027 22.4629 172.91 22.0392 172.91 21.5713C172.91 21.1191 172.998 20.7214 173.175 20.3783C173.352 20.03 173.607 19.7415 173.939 19.5128C174.272 19.2788 174.672 19.1021 175.14 18.9825C175.608 18.8629 176.131 18.8032 176.708 18.8032H178.384ZM185.223 22.8892C185.566 22.8892 185.883 22.819 186.174 22.6786C186.465 22.5383 186.704 22.3459 186.891 22.1016C187.079 21.8521 187.185 21.5687 187.211 21.2516H188.583C188.557 21.7507 188.389 22.216 188.077 22.6474C187.77 23.0737 187.367 23.4194 186.868 23.6845C186.369 23.9444 185.821 24.0744 185.223 24.0744C184.588 24.0744 184.035 23.9626 183.562 23.7391C183.094 23.5156 182.704 23.2089 182.392 22.819C182.085 22.4291 181.854 21.982 181.698 21.4778C181.547 20.9683 181.472 20.4303 181.472 19.8637V19.5361C181.472 18.9695 181.547 18.4341 181.698 17.9298C181.854 17.4204 182.085 16.9707 182.392 16.5808C182.704 16.1909 183.094 15.8842 183.562 15.6607C184.035 15.4372 184.588 15.3254 185.223 15.3254C185.883 15.3254 186.46 15.4605 186.954 15.7309C187.448 15.996 187.835 16.3599 188.116 16.8225C188.402 17.28 188.557 17.7999 188.583 18.3821H187.211C187.185 18.0338 187.086 17.7193 186.915 17.4386C186.748 17.1578 186.52 16.9343 186.229 16.768C185.943 16.5964 185.607 16.5106 185.223 16.5106C184.781 16.5106 184.409 16.599 184.108 16.7758C183.811 16.9473 183.575 17.1812 183.398 17.4776C183.226 17.7687 183.102 18.0936 183.024 18.4523C182.951 18.8058 182.915 19.1671 182.915 19.5361V19.8637C182.915 20.2327 182.951 20.5966 183.024 20.9553C183.097 21.314 183.219 21.6389 183.39 21.93C183.567 22.2212 183.803 22.4551 184.1 22.6318C184.401 22.8034 184.776 22.8892 185.223 22.8892ZM193.738 15.4813V16.5886H189.176V15.4813H193.738ZM190.72 13.4305H192.163V21.8287C192.163 22.1146 192.207 22.3303 192.295 22.4759C192.384 22.6214 192.498 22.7176 192.638 22.7644C192.779 22.8112 192.929 22.8346 193.091 22.8346C193.21 22.8346 193.335 22.8242 193.465 22.8034C193.6 22.7774 193.701 22.7566 193.769 22.741L193.777 23.9185C193.662 23.9548 193.512 23.9886 193.324 24.0198C193.143 24.0562 192.922 24.0744 192.662 24.0744C192.308 24.0744 191.983 24.0042 191.687 23.8639C191.391 23.7235 191.154 23.4896 190.977 23.1621C190.806 22.8294 190.72 22.3823 190.72 21.8209V13.4305ZM196.997 15.4813V23.9185H195.547V15.4813H196.997ZM195.438 13.2434C195.438 13.0095 195.508 12.8119 195.648 12.6508C195.794 12.4896 196.007 12.409 196.288 12.409C196.563 12.409 196.774 12.4896 196.919 12.6508C197.07 12.8119 197.145 13.0095 197.145 13.2434C197.145 13.4669 197.07 13.6593 196.919 13.8204C196.774 13.9764 196.563 14.0544 196.288 14.0544C196.007 14.0544 195.794 13.9764 195.648 13.8204C195.508 13.6593 195.438 13.4669 195.438 13.2434ZM198.931 19.7935V19.6141C198.931 19.0059 199.019 18.4419 199.196 17.922C199.373 17.397 199.628 16.9421 199.96 16.5574C200.293 16.1675 200.696 15.866 201.169 15.6529C201.642 15.4346 202.172 15.3254 202.76 15.3254C203.352 15.3254 203.885 15.4346 204.358 15.6529C204.836 15.866 205.242 16.1675 205.575 16.5574C205.913 16.9421 206.17 17.397 206.347 17.922C206.523 18.4419 206.612 19.0059 206.612 19.6141V19.7935C206.612 20.4017 206.523 20.9657 206.347 21.4856C206.17 22.0054 205.913 22.4603 205.575 22.8502C205.242 23.2349 204.839 23.5364 204.366 23.7547C203.898 23.9678 203.368 24.0744 202.775 24.0744C202.183 24.0744 201.65 23.9678 201.177 23.7547C200.704 23.5364 200.298 23.2349 199.96 22.8502C199.628 22.4603 199.373 22.0054 199.196 21.4856C199.019 20.9657 198.931 20.4017 198.931 19.7935ZM200.374 19.6141V19.7935C200.374 20.2145 200.423 20.6122 200.522 20.9865C200.621 21.3556 200.769 21.6831 200.966 21.969C201.169 22.2549 201.421 22.4811 201.723 22.6474C202.024 22.8086 202.375 22.8892 202.775 22.8892C203.17 22.8892 203.516 22.8086 203.812 22.6474C204.114 22.4811 204.363 22.2549 204.561 21.969C204.759 21.6831 204.907 21.3556 205.005 20.9865C205.109 20.6122 205.161 20.2145 205.161 19.7935V19.6141C205.161 19.1982 205.109 18.8058 205.005 18.4367C204.907 18.0624 204.756 17.7323 204.553 17.4464C204.356 17.1552 204.106 16.9265 203.805 16.7602C203.508 16.5938 203.16 16.5106 202.76 16.5106C202.365 16.5106 202.016 16.5938 201.715 16.7602C201.419 16.9265 201.169 17.1552 200.966 17.4464C200.769 17.7323 200.621 18.0624 200.522 18.4367C200.423 18.8058 200.374 19.1982 200.374 19.6141ZM209.863 17.2826V23.9185H208.421V15.4813H209.785L209.863 17.2826ZM209.52 19.3802L208.92 19.3568C208.925 18.7798 209.011 18.2469 209.177 17.7583C209.344 17.2644 209.578 16.8355 209.879 16.4717C210.181 16.1078 210.539 15.827 210.955 15.6295C211.376 15.4268 211.841 15.3254 212.351 15.3254C212.767 15.3254 213.141 15.3826 213.474 15.4969C213.806 15.6061 214.09 15.7829 214.324 16.0272C214.563 16.2715 214.745 16.5886 214.87 16.9785C214.994 17.3632 215.057 17.8336 215.057 18.3899V23.9185H213.606V18.3743C213.606 17.9324 213.541 17.5789 213.411 17.3138C213.281 17.0435 213.092 16.8485 212.842 16.729C212.593 16.6042 212.286 16.5418 211.922 16.5418C211.563 16.5418 211.236 16.6172 210.939 16.768C210.648 16.9187 210.396 17.1267 210.183 17.3918C209.975 17.6569 209.811 17.961 209.692 18.3041C209.578 18.642 209.52 19.0007 209.52 19.3802Z" fill="#0096DE"/>
<defs>
<clipPath id="clip0_1358_24738">
<rect width="19.9621" height="19.9621" fill="white" transform="translate(67.242 8.91846)"/>
</clipPath>
</defs>
</svg>
