<svg width="283" height="35" viewBox="0 0 283 35" fill="none" xmlns="http://www.w3.org/2000/svg">
<rect x="0.986328" width="281.466" height="34.9337" rx="3.99242" fill="white"/>
<g clip-path="url(#clip0_1358_24734)">
<path d="M106.545 23.7883H94.9008V12.1437H100.723V10.4802H94.9008C93.9775 10.4802 93.2373 11.2288 93.2373 12.1437V23.7883C93.2373 24.7032 93.9775 25.4518 94.9008 25.4518H106.545C107.46 25.4518 108.209 24.7032 108.209 23.7883V17.966H106.545V23.7883ZM102.387 10.4802V12.1437H105.373L97.1964 20.3199L98.3692 21.4927L106.545 13.3165V16.3025H108.209V10.4802H102.387Z" fill="#0096DE"/>
</g>
<path d="M123.169 21.7606V22.9849H117.492V21.7606H123.169ZM117.788 11.6314V22.9849H116.283V11.6314H117.788ZM126.241 14.5477V22.9849H124.79V14.5477H126.241ZM124.681 12.3098C124.681 12.0759 124.751 11.8783 124.892 11.7172C125.037 11.556 125.251 11.4755 125.531 11.4755C125.807 11.4755 126.017 11.556 126.163 11.7172C126.314 11.8783 126.389 12.0759 126.389 12.3098C126.389 12.5333 126.314 12.7257 126.163 12.8868C126.017 13.0428 125.807 13.1208 125.531 13.1208C125.251 13.1208 125.037 13.0428 124.892 12.8868C124.751 12.7257 124.681 12.5333 124.681 12.3098ZM129.999 16.349V22.9849H128.557V14.5477H129.921L129.999 16.349ZM129.656 18.4466L129.056 18.4232C129.061 17.8462 129.147 17.3133 129.313 16.8247C129.479 16.3308 129.713 15.9019 130.015 15.5381C130.316 15.1742 130.675 14.8934 131.091 14.6959C131.512 14.4932 131.977 14.3918 132.487 14.3918C132.903 14.3918 133.277 14.449 133.61 14.5633C133.942 14.6725 134.226 14.8493 134.46 15.0936C134.699 15.3379 134.881 15.655 135.005 16.0449C135.13 16.4296 135.193 16.9001 135.193 17.4563V22.9849H133.742V17.4407C133.742 16.9988 133.677 16.6453 133.547 16.3802C133.417 16.1099 133.228 15.9149 132.978 15.7954C132.729 15.6706 132.422 15.6082 132.058 15.6082C131.699 15.6082 131.372 15.6836 131.075 15.8344C130.784 15.9851 130.532 16.1931 130.319 16.4582C130.111 16.7233 129.947 17.0274 129.828 17.3705C129.713 17.7084 129.656 18.0671 129.656 18.4466ZM138.834 11.0076V22.9849H137.384V11.0076H138.834ZM143.988 14.5477L140.308 18.4856L138.249 20.6222L138.132 19.086L139.606 17.3237L142.226 14.5477H143.988ZM142.671 22.9849L139.661 18.9612L140.409 17.6746L144.371 22.9849H142.671ZM154.414 21.5423V17.199C154.414 16.8663 154.346 16.5778 154.211 16.3334C154.081 16.0839 153.884 15.8916 153.619 15.7564C153.353 15.6212 153.026 15.5537 152.636 15.5537C152.272 15.5537 151.952 15.616 151.677 15.7408C151.407 15.8656 151.193 16.0293 151.038 16.2321C150.887 16.4348 150.811 16.6531 150.811 16.8871H149.369C149.369 16.5855 149.447 16.2866 149.603 15.9903C149.759 15.694 149.982 15.4263 150.273 15.1872C150.57 14.9428 150.923 14.7505 151.334 14.6101C151.75 14.4646 152.212 14.3918 152.722 14.3918C153.335 14.3918 153.876 14.4958 154.344 14.7037C154.817 14.9116 155.186 15.2261 155.451 15.6472C155.721 16.0631 155.857 16.5855 155.857 17.2146V21.1446C155.857 21.4253 155.88 21.7242 155.927 22.0413C155.979 22.3584 156.054 22.6314 156.153 22.8601V22.9849H154.648C154.575 22.8185 154.518 22.5976 154.476 22.3221C154.435 22.0413 154.414 21.7814 154.414 21.5423ZM154.663 17.8696L154.679 18.8833H153.221C152.81 18.8833 152.444 18.9171 152.121 18.9846C151.799 19.047 151.529 19.1432 151.31 19.2732C151.092 19.4031 150.926 19.5669 150.811 19.7644C150.697 19.9568 150.64 20.1829 150.64 20.4428C150.64 20.7079 150.7 20.9497 150.819 21.168C150.939 21.3863 151.118 21.5605 151.357 21.6904C151.602 21.8152 151.9 21.8776 152.254 21.8776C152.696 21.8776 153.086 21.784 153.424 21.5969C153.762 21.4097 154.029 21.181 154.227 20.9107C154.43 20.6404 154.539 20.3778 154.554 20.1231L155.17 20.8171C155.134 21.0354 155.035 21.2772 154.874 21.5423C154.713 21.8074 154.497 22.0621 154.227 22.3065C153.962 22.5456 153.645 22.7457 153.275 22.9069C152.912 23.0628 152.501 23.1408 152.043 23.1408C151.472 23.1408 150.97 23.0291 150.538 22.8055C150.112 22.582 149.78 22.2831 149.54 21.9088C149.306 21.5293 149.189 21.1056 149.189 20.6378C149.189 20.1855 149.278 19.7878 149.455 19.4447C149.631 19.0964 149.886 18.8079 150.219 18.5792C150.551 18.3452 150.952 18.1685 151.42 18.0489C151.887 17.9294 152.41 17.8696 152.987 17.8696H154.663ZM161.502 21.9556C161.845 21.9556 162.162 21.8854 162.453 21.745C162.744 21.6047 162.984 21.4123 163.171 21.168C163.358 20.9185 163.464 20.6352 163.49 20.318H164.863C164.837 20.8171 164.668 21.2824 164.356 21.7138C164.049 22.1401 163.646 22.4858 163.147 22.7509C162.648 23.0109 162.1 23.1408 161.502 23.1408C160.868 23.1408 160.314 23.0291 159.841 22.8055C159.373 22.582 158.983 22.2753 158.671 21.8854C158.365 21.4955 158.133 21.0484 157.978 20.5442C157.827 20.0347 157.751 19.4967 157.751 18.9301V18.6026C157.751 18.0359 157.827 17.5005 157.978 16.9962C158.133 16.4868 158.365 16.0371 158.671 15.6472C158.983 15.2573 159.373 14.9506 159.841 14.7271C160.314 14.5036 160.868 14.3918 161.502 14.3918C162.162 14.3918 162.739 14.527 163.233 14.7973C163.727 15.0624 164.114 15.4263 164.395 15.889C164.681 16.3464 164.837 16.8663 164.863 17.4485H163.49C163.464 17.1002 163.366 16.7857 163.194 16.505C163.028 16.2243 162.799 16.0007 162.508 15.8344C162.222 15.6628 161.887 15.577 161.502 15.577C161.06 15.577 160.689 15.6654 160.387 15.8422C160.091 16.0137 159.854 16.2476 159.677 16.544C159.506 16.8351 159.381 17.16 159.303 17.5187C159.23 17.8722 159.194 18.2335 159.194 18.6026V18.9301C159.194 19.2991 159.23 19.663 159.303 20.0217C159.376 20.3804 159.498 20.7053 159.67 20.9964C159.846 21.2876 160.083 21.5215 160.379 21.6982C160.681 21.8698 161.055 21.9556 161.502 21.9556ZM170.017 14.5477V15.655H165.455V14.5477H170.017ZM166.999 12.497H168.442V20.8951C168.442 21.181 168.486 21.3967 168.575 21.5423C168.663 21.6878 168.777 21.784 168.918 21.8308C169.058 21.8776 169.209 21.901 169.37 21.901C169.49 21.901 169.614 21.8906 169.744 21.8698C169.879 21.8438 169.981 21.823 170.048 21.8074L170.056 22.9849C169.942 23.0213 169.791 23.055 169.604 23.0862C169.422 23.1226 169.201 23.1408 168.941 23.1408C168.588 23.1408 168.263 23.0706 167.966 22.9303C167.67 22.7899 167.434 22.556 167.257 22.2285C167.085 21.8958 166.999 21.4487 166.999 20.8873V12.497ZM173.277 14.5477V22.9849H171.826V14.5477H173.277ZM171.717 12.3098C171.717 12.0759 171.787 11.8783 171.928 11.7172C172.073 11.556 172.286 11.4755 172.567 11.4755C172.843 11.4755 173.053 11.556 173.199 11.7172C173.349 11.8783 173.425 12.0759 173.425 12.3098C173.425 12.5333 173.349 12.7257 173.199 12.8868C173.053 13.0428 172.843 13.1208 172.567 13.1208C172.286 13.1208 172.073 13.0428 171.928 12.8868C171.787 12.7257 171.717 12.5333 171.717 12.3098ZM175.21 18.8599V18.6805C175.21 18.0723 175.299 17.5083 175.476 16.9884C175.652 16.4634 175.907 16.0085 176.24 15.6238C176.572 15.2339 176.975 14.9324 177.448 14.7193C177.921 14.501 178.452 14.3918 179.039 14.3918C179.632 14.3918 180.165 14.501 180.638 14.7193C181.116 14.9324 181.521 15.2339 181.854 15.6238C182.192 16.0085 182.449 16.4634 182.626 16.9884C182.803 17.5083 182.891 18.0723 182.891 18.6805V18.8599C182.891 19.4681 182.803 20.0321 182.626 20.552C182.449 21.0718 182.192 21.5267 181.854 21.9166C181.521 22.3013 181.118 22.6028 180.645 22.8211C180.178 23.0342 179.647 23.1408 179.055 23.1408C178.462 23.1408 177.929 23.0342 177.456 22.8211C176.983 22.6028 176.578 22.3013 176.24 21.9166C175.907 21.5267 175.652 21.0718 175.476 20.552C175.299 20.0321 175.21 19.4681 175.21 18.8599ZM176.653 18.6805V18.8599C176.653 19.281 176.702 19.6786 176.801 20.0529C176.9 20.422 177.048 20.7495 177.246 21.0354C177.448 21.3214 177.7 21.5475 178.002 21.7138C178.304 21.875 178.654 21.9556 179.055 21.9556C179.45 21.9556 179.795 21.875 180.092 21.7138C180.393 21.5475 180.643 21.3214 180.84 21.0354C181.038 20.7495 181.186 20.422 181.285 20.0529C181.389 19.6786 181.441 19.281 181.441 18.8599V18.6805C181.441 18.2647 181.389 17.8722 181.285 17.5031C181.186 17.1288 181.035 16.7987 180.833 16.5128C180.635 16.2217 180.385 15.9929 180.084 15.8266C179.788 15.6602 179.439 15.577 179.039 15.577C178.644 15.577 178.296 15.6602 177.994 15.8266C177.698 15.9929 177.448 16.2217 177.246 16.5128C177.048 16.7987 176.9 17.1288 176.801 17.5031C176.702 17.8722 176.653 18.2647 176.653 18.6805ZM186.143 16.349V22.9849H184.7V14.5477H186.065L186.143 16.349ZM185.8 18.4466L185.199 18.4232C185.204 17.8462 185.29 17.3133 185.457 16.8247C185.623 16.3308 185.857 15.9019 186.158 15.5381C186.46 15.1742 186.819 14.8934 187.234 14.6959C187.656 14.4932 188.121 14.3918 188.63 14.3918C189.046 14.3918 189.42 14.449 189.753 14.5633C190.086 14.6725 190.369 14.8493 190.603 15.0936C190.842 15.3379 191.024 15.655 191.149 16.0449C191.274 16.4296 191.336 16.9001 191.336 17.4563V22.9849H189.886V17.4407C189.886 16.9988 189.821 16.6453 189.691 16.3802C189.561 16.1099 189.371 15.9149 189.122 15.7954C188.872 15.6706 188.565 15.6082 188.201 15.6082C187.843 15.6082 187.515 15.6836 187.219 15.8344C186.928 15.9851 186.676 16.1931 186.463 16.4582C186.255 16.7233 186.091 17.0274 185.971 17.3705C185.857 17.7084 185.8 18.0671 185.8 18.4466Z" fill="#0096DE"/>
<defs>
<clipPath id="clip0_1358_24734">
<rect width="19.9621" height="19.9621" fill="white" transform="translate(90.742 7.98486)"/>
</clipPath>
</defs>
</svg>
