<svg width="519" height="220" viewBox="0 0 519 220" fill="none" xmlns="http://www.w3.org/2000/svg">
<g filter="url(#filter0_d_1_14928)">
<rect x="61" y="46" width="397.671" height="97.9114" rx="18.076" fill="white"/>
</g>
<path d="M164.087 92.933C164.087 93.6078 163.924 94.2405 163.599 94.8309C163.286 95.4214 162.786 95.8974 162.099 96.2589C161.424 96.6205 160.568 96.8012 159.532 96.8012H157.417V101.646H154.886V89.0286H159.532C160.508 89.0286 161.34 89.1973 162.026 89.5347C162.713 89.8721 163.225 90.336 163.563 90.9265C163.912 91.517 164.087 92.1858 164.087 92.933ZM159.423 94.7586C160.122 94.7586 160.641 94.602 160.978 94.2887C161.315 93.9633 161.484 93.5114 161.484 92.933C161.484 91.7038 160.797 91.0892 159.423 91.0892H157.417V94.7586H159.423ZM175.193 96.4216C175.193 96.7831 175.169 97.1085 175.121 97.3977H167.8C167.86 98.1208 168.113 98.6871 168.559 99.0969C169.005 99.5066 169.553 99.7114 170.204 99.7114C171.144 99.7114 171.813 99.3077 172.21 98.5004H174.94C174.651 99.4644 174.096 100.26 173.277 100.886C172.457 101.501 171.451 101.808 170.258 101.808C169.294 101.808 168.426 101.597 167.655 101.176C166.896 100.742 166.3 100.133 165.866 99.3499C165.444 98.5666 165.233 97.6628 165.233 96.6385C165.233 95.6022 165.444 94.6924 165.866 93.9091C166.287 93.1258 166.878 92.5232 167.637 92.1015C168.396 91.6797 169.27 91.4688 170.258 91.4688C171.21 91.4688 172.06 91.6737 172.807 92.0834C173.566 92.4931 174.151 93.0776 174.56 93.8368C174.982 94.5839 175.193 95.4455 175.193 96.4216ZM172.572 95.6986C172.56 95.0478 172.325 94.5297 171.867 94.144C171.409 93.7464 170.849 93.5475 170.186 93.5475C169.559 93.5475 169.029 93.7404 168.595 94.126C168.173 94.4995 167.914 95.0237 167.818 95.6986H172.572ZM186.349 96.4216C186.349 96.7831 186.325 97.1085 186.277 97.3977H178.956C179.016 98.1208 179.269 98.6871 179.715 99.0969C180.161 99.5066 180.709 99.7114 181.36 99.7114C182.3 99.7114 182.969 99.3077 183.367 98.5004H186.096C185.807 99.4644 185.253 100.26 184.433 100.886C183.614 101.501 182.607 101.808 181.414 101.808C180.45 101.808 179.583 101.597 178.811 101.176C178.052 100.742 177.456 100.133 177.022 99.3499C176.6 98.5666 176.389 97.6628 176.389 96.6385C176.389 95.6022 176.6 94.6924 177.022 93.9091C177.444 93.1258 178.034 92.5232 178.793 92.1015C179.553 91.6797 180.426 91.4688 181.414 91.4688C182.366 91.4688 183.216 91.6737 183.963 92.0834C184.722 92.4931 185.307 93.0776 185.716 93.8368C186.138 94.5839 186.349 95.4455 186.349 96.4216ZM183.728 95.6986C183.716 95.0478 183.481 94.5297 183.023 94.144C182.565 93.7464 182.005 93.5475 181.342 93.5475C180.715 93.5475 180.185 93.7404 179.751 94.126C179.33 94.4995 179.071 95.0237 178.974 95.6986H183.728ZM190.727 93.186C191.052 92.6558 191.474 92.24 191.992 91.9388C192.522 91.6375 193.125 91.4869 193.8 91.4869V94.144H193.131C192.336 94.144 191.733 94.3308 191.323 94.7044C190.926 95.078 190.727 95.7287 190.727 96.6566V101.646H188.196V91.6315H190.727V93.186ZM198.035 88.2694V101.646H195.504V88.2694H198.035ZM209.844 96.4216C209.844 96.7831 209.82 97.1085 209.772 97.3977H202.451C202.512 98.1208 202.765 98.6871 203.21 99.0969C203.656 99.5066 204.205 99.7114 204.855 99.7114C205.795 99.7114 206.464 99.3077 206.862 98.5004H209.591C209.302 99.4644 208.748 100.26 207.928 100.886C207.109 101.501 206.103 101.808 204.91 101.808C203.946 101.808 203.078 101.597 202.307 101.176C201.547 100.742 200.951 100.133 200.517 99.3499C200.095 98.5666 199.885 97.6628 199.885 96.6385C199.885 95.6022 200.095 94.6924 200.517 93.9091C200.939 93.1258 201.529 92.5232 202.289 92.1015C203.048 91.6797 203.921 91.4688 204.91 91.4688C205.862 91.4688 206.711 91.6737 207.458 92.0834C208.218 92.4931 208.802 93.0776 209.212 93.8368C209.633 94.5839 209.844 95.4455 209.844 96.4216ZM207.223 95.6986C207.211 95.0478 206.976 94.5297 206.518 94.144C206.06 93.7464 205.5 93.5475 204.837 93.5475C204.211 93.5475 203.68 93.7404 203.247 94.126C202.825 94.4995 202.566 95.0237 202.469 95.6986H207.223ZM215.524 101.808C214.704 101.808 213.969 101.664 213.318 101.374C212.668 101.073 212.149 100.669 211.764 100.163C211.39 99.6572 211.185 99.0969 211.149 98.4823H213.698C213.746 98.8679 213.933 99.1872 214.258 99.4403C214.596 99.6934 215.011 99.8199 215.506 99.8199C215.988 99.8199 216.361 99.7235 216.626 99.5307C216.903 99.3379 217.042 99.0908 217.042 98.7896C217.042 98.4642 216.873 98.2232 216.536 98.0665C216.21 97.8978 215.686 97.7171 214.963 97.5243C214.216 97.3435 213.602 97.1567 213.119 96.9639C212.65 96.7711 212.24 96.4758 211.89 96.0782C211.553 95.6805 211.384 95.1443 211.384 94.4694C211.384 93.9151 211.541 93.409 211.854 92.951C212.18 92.4931 212.637 92.1316 213.228 91.8665C213.83 91.6014 214.535 91.4688 215.343 91.4688C216.536 91.4688 217.488 91.7701 218.199 92.3726C218.91 92.9631 219.301 93.7645 219.374 94.7767H216.952C216.915 94.379 216.747 94.0657 216.445 93.8368C216.156 93.5957 215.765 93.4752 215.271 93.4752C214.813 93.4752 214.457 93.5596 214.204 93.7283C213.963 93.897 213.843 94.132 213.843 94.4333C213.843 94.7707 214.011 95.0298 214.349 95.2105C214.686 95.3792 215.21 95.554 215.921 95.7347C216.644 95.9155 217.241 96.1023 217.711 96.2951C218.181 96.4879 218.584 96.7892 218.922 97.1989C219.271 97.5966 219.452 98.1268 219.464 98.7896C219.464 99.368 219.301 99.8862 218.976 100.344C218.663 100.802 218.205 101.164 217.602 101.429C217.012 101.682 216.319 101.808 215.524 101.808ZM225.374 101.808C224.554 101.808 223.819 101.664 223.168 101.374C222.518 101.073 221.999 100.669 221.614 100.163C221.24 99.6572 221.035 99.0969 220.999 98.4823H223.548C223.596 98.8679 223.783 99.1872 224.108 99.4403C224.446 99.6934 224.861 99.8199 225.355 99.8199C225.838 99.8199 226.211 99.7235 226.476 99.5307C226.753 99.3379 226.892 99.0908 226.892 98.7896C226.892 98.4642 226.723 98.2232 226.386 98.0665C226.06 97.8978 225.536 97.7171 224.813 97.5243C224.066 97.3435 223.451 97.1567 222.969 96.9639C222.499 96.7711 222.09 96.4758 221.74 96.0782C221.403 95.6805 221.234 95.1443 221.234 94.4694C221.234 93.9151 221.391 93.409 221.704 92.951C222.03 92.4931 222.487 92.1316 223.078 91.8665C223.68 91.6014 224.385 91.4688 225.193 91.4688C226.386 91.4688 227.338 91.7701 228.049 92.3726C228.76 92.9631 229.151 93.7645 229.224 94.7767H226.802C226.765 94.379 226.597 94.0657 226.295 93.8368C226.006 93.5957 225.615 93.4752 225.121 93.4752C224.663 93.4752 224.307 93.5596 224.054 93.7283C223.813 93.897 223.693 94.132 223.693 94.4333C223.693 94.7707 223.861 95.0298 224.199 95.2105C224.536 95.3792 225.06 95.554 225.771 95.7347C226.494 95.9155 227.091 96.1023 227.561 96.2951C228.031 96.4879 228.434 96.7892 228.772 97.1989C229.121 97.5966 229.302 98.1268 229.314 98.7896C229.314 99.368 229.151 99.8862 228.826 100.344C228.513 100.802 228.055 101.164 227.452 101.429C226.862 101.682 226.169 101.808 225.374 101.808ZM243.435 99.2415H238.41L237.579 101.646H234.921L239.458 89.0105H242.405L246.942 101.646H244.267L243.435 99.2415ZM242.748 97.217L240.923 91.9388L239.097 97.217H242.748ZM258.091 91.6315V101.646H255.543V100.38C255.217 100.814 254.79 101.158 254.259 101.411C253.741 101.652 253.175 101.772 252.56 101.772C251.777 101.772 251.084 101.609 250.481 101.284C249.879 100.947 249.403 100.459 249.053 99.8199C248.716 99.1692 248.547 98.3979 248.547 97.5062V91.6315H251.078V97.1447C251.078 97.94 251.277 98.5546 251.675 98.9884C252.072 99.4102 252.614 99.6211 253.301 99.6211C254 99.6211 254.549 99.4102 254.946 98.9884C255.344 98.5546 255.543 97.94 255.543 97.1447V91.6315H258.091ZM259.938 96.6024C259.938 95.5901 260.136 94.6924 260.534 93.9091C260.944 93.1258 261.498 92.5232 262.197 92.1015C262.896 91.6797 263.673 91.4688 264.529 91.4688C265.18 91.4688 265.8 91.6134 266.391 91.9026C266.981 92.1798 267.451 92.5534 267.801 93.0233V88.2694H270.367V101.646H267.801V100.163C267.487 100.657 267.047 101.055 266.481 101.356C265.915 101.658 265.258 101.808 264.511 101.808C263.667 101.808 262.896 101.591 262.197 101.158C261.498 100.724 260.944 100.115 260.534 99.3318C260.136 98.5365 259.938 97.6267 259.938 96.6024ZM267.819 96.6385C267.819 96.0239 267.698 95.4997 267.457 95.0659C267.216 94.62 266.891 94.2826 266.481 94.0537C266.071 93.8127 265.632 93.6922 265.162 93.6922C264.692 93.6922 264.258 93.8066 263.86 94.0356C263.462 94.2646 263.137 94.602 262.884 95.0478C262.643 95.4817 262.522 95.9998 262.522 96.6024C262.522 97.2049 262.643 97.7351 262.884 98.1931C263.137 98.6389 263.462 98.9824 263.86 99.2234C264.27 99.4644 264.704 99.5849 265.162 99.5849C265.632 99.5849 266.071 99.4704 266.481 99.2415C266.891 99.0005 267.216 98.663 267.457 98.2292C267.698 97.7833 267.819 97.2531 267.819 96.6385ZM274.122 90.4385C273.677 90.4385 273.303 90.2999 273.002 90.0227C272.713 89.7335 272.568 89.378 272.568 88.9563C272.568 88.5345 272.713 88.185 273.002 87.9078C273.303 87.6186 273.677 87.474 274.122 87.474C274.568 87.474 274.936 87.6186 275.225 87.9078C275.526 88.185 275.677 88.5345 275.677 88.9563C275.677 89.378 275.526 89.7335 275.225 90.0227C274.936 90.2999 274.568 90.4385 274.122 90.4385ZM275.37 91.6315V101.646H272.839V91.6315H275.37ZM287.179 96.4216C287.179 96.7831 287.155 97.1085 287.107 97.3977H279.786C279.846 98.1208 280.099 98.6871 280.545 99.0969C280.991 99.5066 281.539 99.7114 282.19 99.7114C283.13 99.7114 283.799 99.3077 284.197 98.5004H286.926C286.637 99.4644 286.082 100.26 285.263 100.886C284.444 101.501 283.437 101.808 282.244 101.808C281.28 101.808 280.413 101.597 279.641 101.176C278.882 100.742 278.286 100.133 277.852 99.3499C277.43 98.5666 277.219 97.6628 277.219 96.6385C277.219 95.6022 277.43 94.6924 277.852 93.9091C278.274 93.1258 278.864 92.5232 279.623 92.1015C280.383 91.6797 281.256 91.4688 282.244 91.4688C283.196 91.4688 284.046 91.6737 284.793 92.0834C285.552 92.4931 286.137 93.0776 286.546 93.8368C286.968 94.5839 287.179 95.4455 287.179 96.4216ZM284.558 95.6986C284.546 95.0478 284.311 94.5297 283.853 94.144C283.395 93.7464 282.835 93.5475 282.172 93.5475C281.545 93.5475 281.015 93.7404 280.581 94.126C280.16 94.4995 279.9 95.0237 279.804 95.6986H284.558ZM294.576 91.4869C295.769 91.4869 296.733 91.8665 297.468 92.6257C298.203 93.3728 298.57 94.4212 298.57 95.7709V101.646H296.04V96.1143C296.04 95.319 295.841 94.7104 295.443 94.2887C295.045 93.8548 294.503 93.6379 293.816 93.6379C293.117 93.6379 292.563 93.8548 292.153 94.2887C291.756 94.7104 291.557 95.319 291.557 96.1143V101.646H289.026V91.6315H291.557V92.8787C291.894 92.4449 292.322 92.1075 292.84 91.8665C293.37 91.6134 293.949 91.4869 294.576 91.4869ZM300.326 96.6385C300.326 95.6022 300.537 94.6984 300.959 93.9271C301.38 93.1438 301.965 92.5413 302.712 92.1195C303.459 91.6857 304.315 91.4688 305.279 91.4688C306.52 91.4688 307.544 91.7821 308.352 92.4088C309.171 93.0233 309.72 93.891 309.997 95.0117H307.267C307.123 94.5779 306.876 94.2405 306.526 93.9994C306.189 93.7464 305.767 93.6198 305.261 93.6198C304.538 93.6198 303.965 93.885 303.544 94.4152C303.122 94.9334 302.911 95.6745 302.911 96.6385C302.911 97.5905 303.122 98.3316 303.544 98.8619C303.965 99.38 304.538 99.6391 305.261 99.6391C306.285 99.6391 306.954 99.1812 307.267 98.2654H309.997C309.72 99.3499 309.171 100.212 308.352 100.85C307.532 101.489 306.508 101.808 305.279 101.808C304.315 101.808 303.459 101.597 302.712 101.176C301.965 100.742 301.38 100.139 300.959 99.368C300.537 98.5847 300.326 97.6749 300.326 96.6385ZM321.16 96.4216C321.16 96.7831 321.136 97.1085 321.087 97.3977H313.767C313.827 98.1208 314.08 98.6871 314.526 99.0969C314.972 99.5066 315.52 99.7114 316.171 99.7114C317.111 99.7114 317.78 99.3077 318.177 98.5004H320.907C320.617 99.4644 320.063 100.26 319.244 100.886C318.424 101.501 317.418 101.808 316.225 101.808C315.261 101.808 314.393 101.597 313.622 101.176C312.863 100.742 312.266 100.133 311.833 99.3499C311.411 98.5666 311.2 97.6628 311.2 96.6385C311.2 95.6022 311.411 94.6924 311.833 93.9091C312.254 93.1258 312.845 92.5232 313.604 92.1015C314.363 91.6797 315.237 91.4688 316.225 91.4688C317.177 91.4688 318.027 91.6737 318.774 92.0834C319.533 92.4931 320.117 93.0776 320.527 93.8368C320.949 94.5839 321.16 95.4455 321.16 96.4216ZM318.539 95.6986C318.527 95.0478 318.292 94.5297 317.834 94.144C317.376 93.7464 316.815 93.5475 316.153 93.5475C315.526 93.5475 314.996 93.7404 314.562 94.126C314.14 94.4995 313.881 95.0237 313.785 95.6986H318.539ZM329.845 89.0286V101.646H327.314V89.0286H329.845ZM337.894 91.4869C339.087 91.4869 340.051 91.8665 340.786 92.6257C341.521 93.3728 341.889 94.4212 341.889 95.7709V101.646H339.358V96.1143C339.358 95.319 339.16 94.7104 338.762 94.2887C338.364 93.8548 337.822 93.6379 337.135 93.6379C336.436 93.6379 335.882 93.8548 335.472 94.2887C335.074 94.7104 334.876 95.319 334.876 96.1143V101.646H332.345V91.6315H334.876V92.8787C335.213 92.4449 335.641 92.1075 336.159 91.8665C336.689 91.6134 337.268 91.4869 337.894 91.4869ZM347.242 93.7102V98.5546C347.242 98.892 347.32 99.139 347.477 99.2957C347.646 99.4403 347.923 99.5126 348.308 99.5126H349.483V101.646H347.893C345.76 101.646 344.693 100.609 344.693 98.5365V93.7102H343.5V91.6315H344.693V89.1551H347.242V91.6315H349.483V93.7102H347.242ZM360.613 96.4216C360.613 96.7831 360.589 97.1085 360.54 97.3977H353.22C353.28 98.1208 353.533 98.6871 353.979 99.0969C354.425 99.5066 354.973 99.7114 355.624 99.7114C356.564 99.7114 357.232 99.3077 357.63 98.5004H360.36C360.07 99.4644 359.516 100.26 358.697 100.886C357.877 101.501 356.871 101.808 355.678 101.808C354.714 101.808 353.846 101.597 353.075 101.176C352.316 100.742 351.719 100.133 351.285 99.3499C350.864 98.5666 350.653 97.6628 350.653 96.6385C350.653 95.6022 350.864 94.6924 351.285 93.9091C351.707 93.1258 352.298 92.5232 353.057 92.1015C353.816 91.6797 354.69 91.4688 355.678 91.4688C356.63 91.4688 357.479 91.6737 358.227 92.0834C358.986 92.4931 359.57 93.0776 359.98 93.8368C360.402 94.5839 360.613 95.4455 360.613 96.4216ZM357.992 95.6986C357.98 95.0478 357.745 94.5297 357.287 94.144C356.829 93.7464 356.268 93.5475 355.606 93.5475C354.979 93.5475 354.449 93.7404 354.015 94.126C353.593 94.4995 353.334 95.0237 353.238 95.6986H357.992ZM364.99 93.186C365.316 92.6558 365.738 92.24 366.256 91.9388C366.786 91.6375 367.388 91.4869 368.063 91.4869V94.144H367.394C366.599 94.144 365.997 94.3308 365.587 94.7044C365.189 95.078 364.99 95.7287 364.99 96.6566V101.646H362.46V91.6315H364.99V93.186ZM369.117 96.6024C369.117 95.5901 369.316 94.6924 369.714 93.9091C370.123 93.1258 370.672 92.5232 371.358 92.1015C372.057 91.6797 372.835 91.4688 373.69 91.4688C374.437 91.4688 375.088 91.6194 375.642 91.9207C376.209 92.222 376.661 92.6016 376.998 93.0595V91.6315H379.547V101.646H376.998V100.181C376.673 100.651 376.221 101.043 375.642 101.356C375.076 101.658 374.419 101.808 373.672 101.808C372.829 101.808 372.057 101.591 371.358 101.158C370.672 100.724 370.123 100.115 369.714 99.3318C369.316 98.5365 369.117 97.6267 369.117 96.6024ZM376.998 96.6385C376.998 96.0239 376.878 95.4997 376.637 95.0659C376.396 94.62 376.07 94.2826 375.661 94.0537C375.251 93.8127 374.811 93.6922 374.341 93.6922C373.871 93.6922 373.437 93.8066 373.04 94.0356C372.642 94.2646 372.317 94.602 372.063 95.0478C371.822 95.4817 371.702 95.9998 371.702 96.6024C371.702 97.2049 371.822 97.7351 372.063 98.1931C372.317 98.6389 372.642 98.9824 373.04 99.2234C373.449 99.4644 373.883 99.5849 374.341 99.5849C374.811 99.5849 375.251 99.4704 375.661 99.2415C376.07 99.0005 376.396 98.663 376.637 98.2292C376.878 97.7833 376.998 97.2531 376.998 96.6385ZM381.368 96.6385C381.368 95.6022 381.579 94.6984 382 93.9271C382.422 93.1438 383.007 92.5413 383.754 92.1195C384.501 91.6857 385.357 91.4688 386.321 91.4688C387.562 91.4688 388.586 91.7821 389.393 92.4088C390.213 93.0233 390.761 93.891 391.038 95.0117H388.309C388.164 94.5779 387.917 94.2405 387.568 93.9994C387.23 93.7464 386.809 93.6198 386.302 93.6198C385.579 93.6198 385.007 93.885 384.585 94.4152C384.164 94.9334 383.953 95.6745 383.953 96.6385C383.953 97.5905 384.164 98.3316 384.585 98.8619C385.007 99.38 385.579 99.6391 386.302 99.6391C387.327 99.6391 387.996 99.1812 388.309 98.2654H391.038C390.761 99.3499 390.213 100.212 389.393 100.85C388.574 101.489 387.55 101.808 386.321 101.808C385.357 101.808 384.501 101.597 383.754 101.176C383.007 100.742 382.422 100.139 382 99.368C381.579 98.5847 381.368 97.6749 381.368 96.6385ZM395.839 93.7102V98.5546C395.839 98.892 395.917 99.139 396.074 99.2957C396.242 99.4403 396.52 99.5126 396.905 99.5126H398.08V101.646H396.489C394.356 101.646 393.29 100.609 393.29 98.5365V93.7102H392.097V91.6315H393.29V89.1551H395.839V91.6315H398.08V93.7102H395.839ZM401.184 90.4385C400.738 90.4385 400.364 90.2999 400.063 90.0227C399.774 89.7335 399.629 89.378 399.629 88.9563C399.629 88.5345 399.774 88.185 400.063 87.9078C400.364 87.6186 400.738 87.474 401.184 87.474C401.63 87.474 401.997 87.6186 402.286 87.9078C402.588 88.185 402.738 88.5345 402.738 88.9563C402.738 89.378 402.588 89.7335 402.286 90.0227C401.997 90.2999 401.63 90.4385 401.184 90.4385ZM402.431 91.6315V101.646H399.9V91.6315H402.431ZM409.378 101.808C408.414 101.808 407.546 101.597 406.775 101.176C406.004 100.742 405.395 100.133 404.949 99.3499C404.515 98.5666 404.299 97.6628 404.299 96.6385C404.299 95.6142 404.521 94.7104 404.967 93.9271C405.425 93.1438 406.046 92.5413 406.829 92.1195C407.612 91.6857 408.486 91.4688 409.45 91.4688C410.414 91.4688 411.288 91.6857 412.071 92.1195C412.854 92.5413 413.469 93.1438 413.915 93.9271C414.373 94.7104 414.602 95.6142 414.602 96.6385C414.602 97.6628 414.367 98.5666 413.897 99.3499C413.439 100.133 412.812 100.742 412.017 101.176C411.234 101.597 410.354 101.808 409.378 101.808ZM409.378 99.603C409.836 99.603 410.264 99.4945 410.661 99.2776C411.071 99.0487 411.396 98.7112 411.637 98.2654C411.878 97.8195 411.999 97.2772 411.999 96.6385C411.999 95.6865 411.746 94.9575 411.24 94.4513C410.746 93.9332 410.137 93.6741 409.414 93.6741C408.691 93.6741 408.082 93.9332 407.588 94.4513C407.106 94.9575 406.865 95.6865 406.865 96.6385C406.865 97.5905 407.1 98.3256 407.57 98.8438C408.052 99.3499 408.655 99.603 409.378 99.603ZM422.007 91.4869C423.2 91.4869 424.164 91.8665 424.9 92.6257C425.635 93.3728 426.002 94.4212 426.002 95.7709V101.646H423.472V96.1143C423.472 95.319 423.273 94.7104 422.875 94.2887C422.477 93.8548 421.935 93.6379 421.248 93.6379C420.549 93.6379 419.995 93.8548 419.585 94.2887C419.188 94.7104 418.989 95.319 418.989 96.1143V101.646H416.458V91.6315H418.989V92.8787C419.326 92.4449 419.754 92.1075 420.272 91.8665C420.802 91.6134 421.381 91.4869 422.007 91.4869Z" fill="#332C5C"/>
<g filter="url(#filter1_d_1_14928)">
<rect x="76.0593" y="61.0631" width="67.7848" height="67.7848" rx="12.0506" fill="white"/>
</g>
<path fill-rule="evenodd" clip-rule="evenodd" d="M125.628 94.9563C125.628 103.614 118.61 110.632 109.952 110.632C101.295 110.632 94.2771 103.614 94.2771 94.9563C94.2771 86.2985 101.295 79.2811 109.952 79.2811C118.61 79.2811 125.628 86.2985 125.628 94.9563Z" stroke="#C06EF3" stroke-width="1.88291" stroke-linecap="round" stroke-linejoin="round"/>
<path d="M115.764 99.9425L109.376 96.1313V87.9175" stroke="#C06EF3" stroke-width="1.88291" stroke-linecap="round" stroke-linejoin="round"/>
<defs>
<filter id="filter0_d_1_14928" x="0.746834" y="0.810125" width="518.177" height="218.418" filterUnits="userSpaceOnUse" color-interpolation-filters="sRGB">
<feFlood flood-opacity="0" result="BackgroundImageFix"/>
<feColorMatrix in="SourceAlpha" type="matrix" values="0 0 0 0 0 0 0 0 0 0 0 0 0 0 0 0 0 0 127 0" result="hardAlpha"/>
<feOffset dy="15.0633"/>
<feGaussianBlur stdDeviation="30.1266"/>
<feComposite in2="hardAlpha" operator="out"/>
<feColorMatrix type="matrix" values="0 0 0 0 0 0 0 0 0 0 0 0 0 0 0 0 0 0 0.03 0"/>
<feBlend mode="normal" in2="BackgroundImageFix" result="effect1_dropShadow_1_14928"/>
<feBlend mode="normal" in="SourceGraphic" in2="effect1_dropShadow_1_14928" result="shape"/>
</filter>
<filter id="filter1_d_1_14928" x="45.9327" y="49.7656" width="128.038" height="128.038" filterUnits="userSpaceOnUse" color-interpolation-filters="sRGB">
<feFlood flood-opacity="0" result="BackgroundImageFix"/>
<feColorMatrix in="SourceAlpha" type="matrix" values="0 0 0 0 0 0 0 0 0 0 0 0 0 0 0 0 0 0 127 0" result="hardAlpha"/>
<feOffset dy="18.8291"/>
<feGaussianBlur stdDeviation="15.0633"/>
<feComposite in2="hardAlpha" operator="out"/>
<feColorMatrix type="matrix" values="0 0 0 0 0 0 0 0 0 0 0 0 0 0 0 0 0 0 0.05 0"/>
<feBlend mode="normal" in2="BackgroundImageFix" result="effect1_dropShadow_1_14928"/>
<feBlend mode="normal" in="SourceGraphic" in2="effect1_dropShadow_1_14928" result="shape"/>
</filter>
</defs>
</svg>
