<svg width="519" height="220" viewBox="0 0 519 220" fill="none" xmlns="http://www.w3.org/2000/svg">
<g filter="url(#filter0_d_1_14944)">
<rect x="61" y="46" width="397.671" height="97.9114" rx="18.076" fill="white"/>
</g>
<path d="M161.182 84.0459V87.2092H165.43V89.2157H161.182V92.5597H165.972V94.6204H158.651V81.9853H165.972V84.0459H161.182ZM173.821 84.4617C175.014 84.4617 175.978 84.8413 176.713 85.6005C177.448 86.3476 177.816 87.396 177.816 88.7457V94.6204H175.285V89.0891C175.285 88.2938 175.086 87.6852 174.689 87.2634C174.291 86.8296 173.749 86.6127 173.062 86.6127C172.363 86.6127 171.808 86.8296 171.399 87.2634C171.001 87.6852 170.802 88.2938 170.802 89.0891V94.6204H168.272V84.6063H170.802V85.8535C171.14 85.4197 171.567 85.0823 172.086 84.8413C172.616 84.5882 173.194 84.4617 173.821 84.4617ZM179.571 89.5772C179.571 88.5649 179.77 87.6671 180.168 86.8839C180.578 86.1006 181.132 85.498 181.831 85.0763C182.53 84.6545 183.307 84.4436 184.163 84.4436C184.813 84.4436 185.434 84.5882 186.025 84.8774C186.615 85.1546 187.085 85.5282 187.434 85.9981V81.2442H190.001V94.6204H187.434V93.1381C187.121 93.6322 186.681 94.0299 186.115 94.3311C185.549 94.6324 184.892 94.783 184.145 94.783C183.301 94.783 182.53 94.5661 181.831 94.1323C181.132 93.6985 180.578 93.0899 180.168 92.3066C179.77 91.5113 179.571 90.6015 179.571 89.5772ZM187.453 89.6133C187.453 88.9987 187.332 88.4745 187.091 88.0407C186.85 87.5948 186.525 87.2574 186.115 87.0285C185.705 86.7874 185.265 86.6669 184.795 86.6669C184.325 86.6669 183.892 86.7814 183.494 87.0104C183.096 87.2393 182.771 87.5768 182.518 88.0226C182.277 88.4565 182.156 88.9746 182.156 89.5772C182.156 90.1797 182.277 90.7099 182.518 91.1679C182.771 91.6137 183.096 91.9572 183.494 92.1982C183.904 92.4392 184.337 92.5597 184.795 92.5597C185.265 92.5597 185.705 92.4452 186.115 92.2163C186.525 91.9752 186.85 91.6378 187.091 91.204C187.332 90.7581 187.453 90.2279 187.453 89.6133ZM195.003 81.2442V94.6204H192.473V81.2442H195.003ZM206.813 89.3964C206.813 89.7579 206.789 90.0833 206.741 90.3725H199.42C199.48 91.0956 199.733 91.6619 200.179 92.0717C200.625 92.4814 201.173 92.6862 201.824 92.6862C202.764 92.6862 203.433 92.2825 203.83 91.4751H206.56C206.271 92.4392 205.716 93.2345 204.897 93.8612C204.077 94.4758 203.071 94.783 201.878 94.783C200.914 94.783 200.046 94.5722 199.275 94.1504C198.516 93.7166 197.919 93.108 197.486 92.3247C197.064 91.5414 196.853 90.6376 196.853 89.6133C196.853 88.577 197.064 87.6671 197.486 86.8839C197.907 86.1006 198.498 85.498 199.257 85.0763C200.016 84.6545 200.89 84.4436 201.878 84.4436C202.83 84.4436 203.68 84.6485 204.427 85.0582C205.186 85.4679 205.77 86.0524 206.18 86.8116C206.602 87.5587 206.813 88.4203 206.813 89.3964ZM204.192 88.6734C204.18 88.0226 203.945 87.5045 203.487 87.1188C203.029 86.7212 202.469 86.5223 201.806 86.5223C201.179 86.5223 200.649 86.7151 200.215 87.1008C199.793 87.4743 199.534 87.9985 199.438 88.6734H204.192ZM212.492 94.783C211.673 94.783 210.938 94.6384 210.287 94.3492C209.636 94.048 209.118 93.6443 208.732 93.1381C208.359 92.632 208.154 92.0717 208.118 91.4571H210.666C210.715 91.8427 210.901 92.162 211.227 92.4151C211.564 92.6682 211.98 92.7947 212.474 92.7947C212.956 92.7947 213.33 92.6983 213.595 92.5055C213.872 92.3127 214.01 92.0656 214.01 91.7644C214.01 91.439 213.842 91.198 213.504 91.0413C213.179 90.8726 212.655 90.6919 211.932 90.499C211.185 90.3183 210.57 90.1315 210.088 89.9387C209.618 89.7459 209.208 89.4506 208.859 89.053C208.521 88.6553 208.353 88.119 208.353 87.4442C208.353 86.8899 208.509 86.3838 208.823 85.9258C209.148 85.4679 209.606 85.1064 210.196 84.8413C210.799 84.5762 211.504 84.4436 212.311 84.4436C213.504 84.4436 214.456 84.7449 215.167 85.3474C215.878 85.9379 216.27 86.7392 216.342 87.7515H213.92C213.884 87.3538 213.715 87.0405 213.414 86.8116C213.125 86.5705 212.733 86.45 212.239 86.45C211.781 86.45 211.426 86.5344 211.173 86.7031C210.932 86.8718 210.811 87.1068 210.811 87.4081C210.811 87.7455 210.98 88.0046 211.317 88.1853C211.655 88.354 212.179 88.5288 212.89 88.7095C213.613 88.8903 214.209 89.0771 214.679 89.2699C215.149 89.4627 215.553 89.764 215.89 90.1737C216.24 90.5713 216.421 91.1016 216.433 91.7644C216.433 92.3428 216.27 92.861 215.945 93.3189C215.631 93.7768 215.173 94.1383 214.571 94.4034C213.98 94.6565 213.287 94.783 212.492 94.783ZM222.342 94.783C221.523 94.783 220.788 94.6384 220.137 94.3492C219.486 94.048 218.968 93.6443 218.582 93.1381C218.209 92.632 218.004 92.0717 217.968 91.4571H220.516C220.565 91.8427 220.751 92.162 221.077 92.4151C221.414 92.6682 221.83 92.7947 222.324 92.7947C222.806 92.7947 223.18 92.6983 223.445 92.5055C223.722 92.3127 223.86 92.0656 223.86 91.7644C223.86 91.439 223.692 91.198 223.354 91.0413C223.029 90.8726 222.505 90.6919 221.782 90.499C221.035 90.3183 220.42 90.1315 219.938 89.9387C219.468 89.7459 219.058 89.4506 218.709 89.053C218.371 88.6553 218.203 88.119 218.203 87.4442C218.203 86.8899 218.359 86.3838 218.673 85.9258C218.998 85.4679 219.456 85.1064 220.046 84.8413C220.649 84.5762 221.354 84.4436 222.161 84.4436C223.354 84.4436 224.306 84.7449 225.017 85.3474C225.728 85.9379 226.12 86.7392 226.192 87.7515H223.77C223.734 87.3538 223.565 87.0405 223.264 86.8116C222.975 86.5705 222.583 86.45 222.089 86.45C221.631 86.45 221.276 86.5344 221.023 86.7031C220.782 86.8718 220.661 87.1068 220.661 87.4081C220.661 87.7455 220.83 88.0046 221.167 88.1853C221.505 88.354 222.029 88.5288 222.74 88.7095C223.463 88.8903 224.059 89.0771 224.529 89.2699C224.999 89.4627 225.403 89.764 225.74 90.1737C226.09 90.5713 226.271 91.1016 226.283 91.7644C226.283 92.3428 226.12 92.861 225.795 93.3189C225.481 93.7768 225.023 94.1383 224.421 94.4034C223.83 94.6565 223.137 94.783 222.342 94.783ZM249.532 82.0033L246.007 94.6204H243.025L240.657 85.6366L238.18 94.6204L235.216 94.6384L231.818 82.0033H234.529L236.752 91.8005L239.319 82.0033H242.139L244.561 91.7463L246.803 82.0033H249.532ZM255.631 94.783C254.667 94.783 253.799 94.5722 253.028 94.1504C252.257 93.7166 251.648 93.108 251.202 92.3247C250.769 91.5414 250.552 90.6376 250.552 89.6133C250.552 88.589 250.775 87.6852 251.221 86.9019C251.678 86.1186 252.299 85.5161 253.082 85.0943C253.866 84.6605 254.739 84.4436 255.703 84.4436C256.667 84.4436 257.541 84.6605 258.324 85.0943C259.108 85.5161 259.722 86.1186 260.168 86.9019C260.626 87.6852 260.855 88.589 260.855 89.6133C260.855 90.6376 260.62 91.5414 260.15 92.3247C259.692 93.108 259.065 93.7166 258.27 94.1504C257.487 94.5722 256.607 94.783 255.631 94.783ZM255.631 92.5778C256.089 92.5778 256.517 92.4693 256.914 92.2524C257.324 92.0234 257.65 91.686 257.891 91.2402C258.132 90.7943 258.252 90.252 258.252 89.6133C258.252 88.6613 257.999 87.9323 257.493 87.4261C256.999 86.908 256.39 86.6489 255.667 86.6489C254.944 86.6489 254.336 86.908 253.842 87.4261C253.36 87.9323 253.119 88.6613 253.119 89.6133C253.119 90.5653 253.353 91.3004 253.823 91.8186C254.305 92.3247 254.908 92.5778 255.631 92.5778ZM265.242 86.1608C265.567 85.6306 265.989 85.2148 266.507 84.9136C267.038 84.6123 267.64 84.4617 268.315 84.4617V87.1188H267.646C266.851 87.1188 266.248 87.3056 265.838 87.6792C265.441 88.0528 265.242 88.7035 265.242 89.6314V94.6204H262.711V84.6063H265.242V86.1608ZM272.55 81.2442V94.6204H270.019V81.2442H272.55ZM274.4 89.5772C274.4 88.5649 274.598 87.6671 274.996 86.8839C275.406 86.1006 275.96 85.498 276.659 85.0763C277.358 84.6545 278.135 84.4436 278.991 84.4436C279.642 84.4436 280.262 84.5882 280.853 84.8774C281.443 85.1546 281.913 85.5282 282.263 85.9981V81.2442H284.829V94.6204H282.263V93.1381C281.949 93.6322 281.509 94.0299 280.943 94.3311C280.377 94.6324 279.72 94.783 278.973 94.783C278.129 94.783 277.358 94.5661 276.659 94.1323C275.96 93.6985 275.406 93.0899 274.996 92.3066C274.598 91.5113 274.4 90.6015 274.4 89.5772ZM282.281 89.6133C282.281 88.9987 282.16 88.4745 281.919 88.0407C281.678 87.5948 281.353 87.2574 280.943 87.0285C280.533 86.7874 280.093 86.6669 279.624 86.6669C279.154 86.6669 278.72 86.7814 278.322 87.0104C277.924 87.2393 277.599 87.5768 277.346 88.0226C277.105 88.4565 276.984 88.9746 276.984 89.5772C276.984 90.1797 277.105 90.7099 277.346 91.1679C277.599 91.6137 277.924 91.9572 278.322 92.1982C278.732 92.4392 279.166 92.5597 279.624 92.5597C280.093 92.5597 280.533 92.4452 280.943 92.2163C281.353 91.9752 281.678 91.6378 281.919 91.204C282.16 90.7581 282.281 90.2279 282.281 89.6133ZM301.183 84.6063L298.255 94.6204H295.526L293.7 87.625L291.874 94.6204H289.127L286.18 84.6063H288.747L290.519 92.2343L292.435 84.6063H295.11L296.99 92.2163L298.761 84.6063H301.183ZM303.836 83.4133C303.39 83.4133 303.017 83.2747 302.715 82.9975C302.426 82.7083 302.281 82.3528 302.281 81.931C302.281 81.5093 302.426 81.1598 302.715 80.8826C303.017 80.5934 303.39 80.4488 303.836 80.4488C304.282 80.4488 304.649 80.5934 304.939 80.8826C305.24 81.1598 305.39 81.5093 305.39 81.931C305.39 82.3528 305.24 82.7083 304.939 82.9975C304.649 83.2747 304.282 83.4133 303.836 83.4133ZM305.083 84.6063V94.6204H302.553V84.6063H305.083ZM306.933 89.5772C306.933 88.5649 307.132 87.6671 307.529 86.8839C307.939 86.1006 308.493 85.498 309.192 85.0763C309.891 84.6545 310.668 84.4436 311.524 84.4436C312.175 84.4436 312.795 84.5882 313.386 84.8774C313.976 85.1546 314.446 85.5282 314.796 85.9981V81.2442H317.363V94.6204H314.796V93.1381C314.482 93.6322 314.043 94.0299 313.476 94.3311C312.91 94.6324 312.253 94.783 311.506 94.783C310.662 94.783 309.891 94.5661 309.192 94.1323C308.493 93.6985 307.939 93.0899 307.529 92.3066C307.132 91.5113 306.933 90.6015 306.933 89.5772ZM314.814 89.6133C314.814 88.9987 314.693 88.4745 314.452 88.0407C314.211 87.5948 313.886 87.2574 313.476 87.0285C313.067 86.7874 312.627 86.6669 312.157 86.6669C311.687 86.6669 311.253 86.7814 310.855 87.0104C310.458 87.2393 310.132 87.5768 309.879 88.0226C309.638 88.4565 309.518 88.9746 309.518 89.5772C309.518 90.1797 309.638 90.7099 309.879 91.1679C310.132 91.6137 310.458 91.9572 310.855 92.1982C311.265 92.4392 311.699 92.5597 312.157 92.5597C312.627 92.5597 313.067 92.4452 313.476 92.2163C313.886 91.9752 314.211 91.6378 314.452 91.204C314.693 90.7581 314.814 90.2279 314.814 89.6133ZM329.143 89.3964C329.143 89.7579 329.119 90.0833 329.071 90.3725H321.75C321.81 91.0956 322.064 91.6619 322.509 92.0717C322.955 92.4814 323.504 92.6862 324.154 92.6862C325.094 92.6862 325.763 92.2825 326.161 91.4751H328.89C328.601 92.4392 328.047 93.2345 327.227 93.8612C326.408 94.4758 325.402 94.783 324.209 94.783C323.244 94.783 322.377 94.5722 321.606 94.1504C320.846 93.7166 320.25 93.108 319.816 92.3247C319.394 91.5414 319.183 90.6376 319.183 89.6133C319.183 88.577 319.394 87.6671 319.816 86.8839C320.238 86.1006 320.828 85.498 321.588 85.0763C322.347 84.6545 323.22 84.4436 324.209 84.4436C325.161 84.4436 326.01 84.6485 326.757 85.0582C327.516 85.4679 328.101 86.0524 328.511 86.8116C328.932 87.5587 329.143 88.4203 329.143 89.3964ZM326.522 88.6734C326.51 88.0226 326.275 87.5045 325.817 87.1188C325.359 86.7212 324.799 86.5223 324.136 86.5223C323.51 86.5223 322.979 86.7151 322.546 87.1008C322.124 87.4743 321.865 87.9985 321.768 88.6734H326.522ZM344.082 85.7993C343.793 85.2691 343.396 84.8654 342.889 84.5882C342.383 84.311 341.793 84.1725 341.118 84.1725C340.371 84.1725 339.708 84.3412 339.13 84.6786C338.551 85.016 338.099 85.498 337.774 86.1247C337.449 86.7513 337.286 87.4743 337.286 88.2938C337.286 89.1373 337.449 89.8724 337.774 90.499C338.111 91.1257 338.575 91.6077 339.166 91.9451C339.756 92.2825 340.443 92.4512 341.226 92.4512C342.191 92.4512 342.98 92.1982 343.594 91.6921C344.209 91.1739 344.613 90.4569 344.806 89.541H340.467V87.6069H347.3V89.8122C347.131 90.6919 346.77 91.5053 346.215 92.2524C345.661 92.9996 344.944 93.6021 344.064 94.06C343.197 94.5059 342.221 94.7288 341.136 94.7288C339.919 94.7288 338.816 94.4577 337.828 93.9154C336.852 93.3611 336.081 92.5959 335.514 91.6198C334.96 90.6437 334.683 89.535 334.683 88.2938C334.683 87.0526 334.96 85.9439 335.514 84.9678C336.081 83.9797 336.852 83.2144 337.828 82.6722C338.816 82.1178 339.913 81.8407 341.118 81.8407C342.54 81.8407 343.775 82.1901 344.824 82.8891C345.872 83.576 346.595 84.546 346.993 85.7993H344.082ZM351.703 86.1608C352.028 85.6306 352.45 85.2148 352.968 84.9136C353.498 84.6123 354.101 84.4617 354.776 84.4617V87.1188H354.107C353.312 87.1188 352.709 87.3056 352.299 87.6792C351.902 88.0528 351.703 88.7035 351.703 89.6314V94.6204H349.172V84.6063H351.703V86.1608ZM360.927 94.783C359.963 94.783 359.095 94.5722 358.324 94.1504C357.553 93.7166 356.944 93.108 356.498 92.3247C356.065 91.5414 355.848 90.6376 355.848 89.6133C355.848 88.589 356.071 87.6852 356.516 86.9019C356.974 86.1186 357.595 85.5161 358.378 85.0943C359.162 84.6605 360.035 84.4436 360.999 84.4436C361.963 84.4436 362.837 84.6605 363.62 85.0943C364.404 85.5161 365.018 86.1186 365.464 86.9019C365.922 87.6852 366.151 88.589 366.151 89.6133C366.151 90.6376 365.916 91.5414 365.446 92.3247C364.988 93.108 364.361 93.7166 363.566 94.1504C362.783 94.5722 361.903 94.783 360.927 94.783ZM360.927 92.5778C361.385 92.5778 361.813 92.4693 362.21 92.2524C362.62 92.0234 362.945 91.686 363.187 91.2402C363.428 90.7943 363.548 90.252 363.548 89.6133C363.548 88.6613 363.295 87.9323 362.789 87.4261C362.295 86.908 361.686 86.6489 360.963 86.6489C360.24 86.6489 359.632 86.908 359.137 87.4261C358.655 87.9323 358.414 88.6613 358.414 89.6133C358.414 90.5653 358.649 91.3004 359.119 91.8186C359.601 92.3247 360.204 92.5778 360.927 92.5778ZM381.89 84.6063L378.961 94.6204H376.232L374.406 87.625L372.58 94.6204H369.833L366.887 84.6063H369.453L371.225 92.2343L373.141 84.6063H375.816L377.696 92.2163L379.467 84.6063H381.89ZM386.205 86.685V91.5294C386.205 91.8668 386.284 92.1138 386.44 92.2705C386.609 92.4151 386.886 92.4874 387.272 92.4874H388.447V94.6204H386.856C384.723 94.6204 383.657 93.584 383.657 91.5113V86.685H382.464V84.6063H383.657V82.1299H386.205V84.6063H388.447V86.685H386.205ZM395.907 84.4617C396.666 84.4617 397.341 84.6304 397.931 84.9678C398.522 85.2932 398.979 85.7812 399.305 86.432C399.642 87.0706 399.811 87.8419 399.811 88.7457V94.6204H397.28V89.0891C397.28 88.2938 397.081 87.6852 396.684 87.2634C396.286 86.8296 395.744 86.6127 395.057 86.6127C394.358 86.6127 393.804 86.8296 393.394 87.2634C392.996 87.6852 392.797 88.2938 392.797 89.0891V94.6204H390.267V81.2442H392.797V85.8535C393.123 85.4197 393.557 85.0823 394.099 84.8413C394.641 84.5882 395.244 84.4617 395.907 84.4617ZM167.852 112.908C167.852 113.583 167.689 114.215 167.364 114.806C167.05 115.396 166.55 115.872 165.863 116.234C165.189 116.595 164.333 116.776 163.297 116.776H161.182V121.62H158.651V109.003H163.297C164.273 109.003 165.104 109.172 165.791 109.509C166.478 109.847 166.99 110.311 167.328 110.901C167.677 111.492 167.852 112.161 167.852 112.908ZM163.188 114.733C163.887 114.733 164.405 114.577 164.743 114.263C165.08 113.938 165.249 113.486 165.249 112.908C165.249 111.679 164.562 111.064 163.188 111.064H161.182V114.733H163.188ZM174.095 121.783C173.131 121.783 172.263 121.572 171.492 121.15C170.721 120.717 170.112 120.108 169.667 119.325C169.233 118.541 169.016 117.638 169.016 116.613C169.016 115.589 169.239 114.685 169.685 113.902C170.143 113.119 170.763 112.516 171.546 112.094C172.33 111.661 173.203 111.444 174.167 111.444C175.131 111.444 176.005 111.661 176.788 112.094C177.572 112.516 178.186 113.119 178.632 113.902C179.09 114.685 179.319 115.589 179.319 116.613C179.319 117.638 179.084 118.541 178.614 119.325C178.156 120.108 177.53 120.717 176.734 121.15C175.951 121.572 175.071 121.783 174.095 121.783ZM174.095 119.578C174.553 119.578 174.981 119.469 175.379 119.252C175.788 119.023 176.114 118.686 176.355 118.24C176.596 117.794 176.716 117.252 176.716 116.613C176.716 115.661 176.463 114.932 175.957 114.426C175.463 113.908 174.854 113.649 174.131 113.649C173.408 113.649 172.8 113.908 172.306 114.426C171.824 114.932 171.583 115.661 171.583 116.613C171.583 117.565 171.818 118.3 172.288 118.819C172.77 119.325 173.372 119.578 174.095 119.578ZM184.122 113.685V118.529C184.122 118.867 184.2 119.114 184.357 119.27C184.525 119.415 184.803 119.487 185.188 119.487H186.363V121.62H184.772C182.64 121.62 181.573 120.584 181.573 118.511V113.685H180.38V111.606H181.573V109.13H184.122V111.606H186.363V113.685H184.122ZM197.492 116.396C197.492 116.758 197.468 117.083 197.42 117.373H190.099C190.16 118.096 190.413 118.662 190.859 119.072C191.304 119.481 191.853 119.686 192.503 119.686C193.443 119.686 194.112 119.283 194.51 118.475H197.239C196.95 119.439 196.396 120.235 195.576 120.861C194.757 121.476 193.751 121.783 192.558 121.783C191.594 121.783 190.726 121.572 189.955 121.15C189.196 120.717 188.599 120.108 188.165 119.325C187.743 118.541 187.533 117.638 187.533 116.613C187.533 115.577 187.743 114.667 188.165 113.884C188.587 113.101 189.178 112.498 189.937 112.076C190.696 111.654 191.57 111.444 192.558 111.444C193.51 111.444 194.359 111.648 195.106 112.058C195.866 112.468 196.45 113.052 196.86 113.812C197.282 114.559 197.492 115.42 197.492 116.396ZM194.871 115.673C194.859 115.023 194.624 114.504 194.166 114.119C193.709 113.721 193.148 113.522 192.485 113.522C191.859 113.522 191.329 113.715 190.895 114.101C190.473 114.474 190.214 114.999 190.117 115.673H194.871ZM204.889 111.462C206.082 111.462 207.046 111.841 207.781 112.6C208.516 113.348 208.884 114.396 208.884 115.746V121.62H206.353V116.089C206.353 115.294 206.154 114.685 205.757 114.263C205.359 113.83 204.817 113.613 204.13 113.613C203.431 113.613 202.876 113.83 202.467 114.263C202.069 114.685 201.87 115.294 201.87 116.089V121.62H199.34V111.606H201.87V112.854C202.208 112.42 202.635 112.082 203.154 111.841C203.684 111.588 204.262 111.462 204.889 111.462ZM214.237 113.685V118.529C214.237 118.867 214.315 119.114 214.472 119.27C214.64 119.415 214.917 119.487 215.303 119.487H216.478V121.62H214.887C212.754 121.62 211.688 120.584 211.688 118.511V113.685H210.495V111.606H211.688V109.13H214.237V111.606H216.478V113.685H214.237ZM219.582 110.413C219.136 110.413 218.762 110.275 218.461 109.998C218.172 109.708 218.027 109.353 218.027 108.931C218.027 108.509 218.172 108.16 218.461 107.883C218.762 107.593 219.136 107.449 219.582 107.449C220.027 107.449 220.395 107.593 220.684 107.883C220.985 108.16 221.136 108.509 221.136 108.931C221.136 109.353 220.985 109.708 220.684 109.998C220.395 110.275 220.027 110.413 219.582 110.413ZM220.829 111.606V121.62H218.298V111.606H220.829ZM222.678 116.577C222.678 115.565 222.877 114.667 223.275 113.884C223.685 113.101 224.233 112.498 224.92 112.076C225.619 111.654 226.396 111.444 227.252 111.444C227.999 111.444 228.649 111.594 229.204 111.895C229.77 112.197 230.222 112.576 230.559 113.034V111.606H233.108V121.62H230.559V120.156C230.234 120.626 229.782 121.018 229.204 121.331C228.637 121.632 227.981 121.783 227.233 121.783C226.39 121.783 225.619 121.566 224.92 121.132C224.233 120.698 223.685 120.09 223.275 119.307C222.877 118.511 222.678 117.601 222.678 116.577ZM230.559 116.613C230.559 115.999 230.439 115.475 230.198 115.041C229.957 114.595 229.632 114.257 229.222 114.028C228.812 113.787 228.372 113.667 227.902 113.667C227.432 113.667 226.998 113.781 226.601 114.01C226.203 114.239 225.878 114.577 225.625 115.023C225.384 115.456 225.263 115.975 225.263 116.577C225.263 117.18 225.384 117.71 225.625 118.168C225.878 118.614 226.203 118.957 226.601 119.198C227.011 119.439 227.444 119.56 227.902 119.56C228.372 119.56 228.812 119.445 229.222 119.216C229.632 118.975 229.957 118.638 230.198 118.204C230.439 117.758 230.559 117.228 230.559 116.613ZM238.11 108.244V121.62H235.58V108.244H238.11Z" fill="#332C5C"/>
<g filter="url(#filter1_d_1_14944)">
<rect x="76.064" y="61.0634" width="67.7848" height="67.7848" rx="12.0506" fill="white"/>
</g>
<path d="M102.118 91.9086V103.534" stroke="#FCA61F" stroke-width="1.88291" stroke-linecap="round" stroke-linejoin="round"/>
<path d="M110.027 86.3459V103.534" stroke="#FCA61F" stroke-width="1.88291" stroke-linecap="round" stroke-linejoin="round"/>
<path d="M117.805 98.0516V103.534" stroke="#FCA61F" stroke-width="1.88291" stroke-linecap="round" stroke-linejoin="round"/>
<path fill-rule="evenodd" clip-rule="evenodd" d="M117.902 78.0096H102.021C96.4848 78.0096 93.0149 81.9277 93.0149 87.4744V102.437C93.0149 107.984 96.4687 111.902 102.021 111.902H117.902C123.454 111.902 126.907 107.984 126.907 102.437V87.4744C126.907 81.9277 123.454 78.0096 117.902 78.0096Z" stroke="#FCA61F" stroke-width="1.88291" stroke-linecap="round" stroke-linejoin="round"/>
<defs>
<filter id="filter0_d_1_14944" x="0.746834" y="0.810125" width="518.177" height="218.418" filterUnits="userSpaceOnUse" color-interpolation-filters="sRGB">
<feFlood flood-opacity="0" result="BackgroundImageFix"/>
<feColorMatrix in="SourceAlpha" type="matrix" values="0 0 0 0 0 0 0 0 0 0 0 0 0 0 0 0 0 0 127 0" result="hardAlpha"/>
<feOffset dy="15.0633"/>
<feGaussianBlur stdDeviation="30.1266"/>
<feComposite in2="hardAlpha" operator="out"/>
<feColorMatrix type="matrix" values="0 0 0 0 0 0 0 0 0 0 0 0 0 0 0 0 0 0 0.01 0"/>
<feBlend mode="normal" in2="BackgroundImageFix" result="effect1_dropShadow_1_14944"/>
<feBlend mode="normal" in="SourceGraphic" in2="effect1_dropShadow_1_14944" result="shape"/>
</filter>
<filter id="filter1_d_1_14944" x="45.9374" y="49.7659" width="128.038" height="128.038" filterUnits="userSpaceOnUse" color-interpolation-filters="sRGB">
<feFlood flood-opacity="0" result="BackgroundImageFix"/>
<feColorMatrix in="SourceAlpha" type="matrix" values="0 0 0 0 0 0 0 0 0 0 0 0 0 0 0 0 0 0 127 0" result="hardAlpha"/>
<feOffset dy="18.8291"/>
<feGaussianBlur stdDeviation="15.0633"/>
<feComposite in2="hardAlpha" operator="out"/>
<feColorMatrix type="matrix" values="0 0 0 0 0 0 0 0 0 0 0 0 0 0 0 0 0 0 0.03 0"/>
<feBlend mode="normal" in2="BackgroundImageFix" result="effect1_dropShadow_1_14944"/>
<feBlend mode="normal" in="SourceGraphic" in2="effect1_dropShadow_1_14944" result="shape"/>
</filter>
</defs>
</svg>
