<svg width="171" height="171" viewBox="0 0 171 171" fill="none" xmlns="http://www.w3.org/2000/svg">
<g filter="url(#filter0_d_1790_27801)">
<rect x="40.9883" y="15.1426" width="90" height="90" rx="16" fill="white"/>
</g>
<path d="M62.3633 55.6426C68.7383 54.1426 79.6883 53.1676 76.9883 61.2676C73.6133 71.3926 74.7383 69.1426 76.9883 73.6426C78.7883 77.2426 77.7383 81.1426 76.9883 82.6426M70.2383 42.1426C73.6133 41.3926 81.4883 40.7926 85.9883 44.3926C91.6133 48.8926 90.4883 55.6426 106.238 46.6426M110.738 60.1426C110.738 73.8116 99.6573 84.8926 85.9883 84.8926C72.3192 84.8926 61.2383 73.8116 61.2383 60.1426C61.2383 46.4735 72.3192 35.3926 85.9883 35.3926C99.6573 35.3926 110.738 46.4735 110.738 60.1426ZM91.2244 60.8154C99.0994 59.6904 101.738 59.0176 99.4883 64.6426C97.3992 69.8653 91.2244 80.3155 86.7244 69.8154C85.5994 67.1904 84.9244 61.7154 91.2244 60.8154Z" stroke="#FCA61F" stroke-width="2" stroke-linecap="round"/>
<defs>
<filter id="filter0_d_1790_27801" x="0.988281" y="0.142578" width="170" height="170" filterUnits="userSpaceOnUse" color-interpolation-filters="sRGB">
<feFlood flood-opacity="0" result="BackgroundImageFix"/>
<feColorMatrix in="SourceAlpha" type="matrix" values="0 0 0 0 0 0 0 0 0 0 0 0 0 0 0 0 0 0 127 0" result="hardAlpha"/>
<feOffset dy="25"/>
<feGaussianBlur stdDeviation="20"/>
<feComposite in2="hardAlpha" operator="out"/>
<feColorMatrix type="matrix" values="0 0 0 0 0 0 0 0 0 0 0 0 0 0 0 0 0 0 0.05 0"/>
<feBlend mode="normal" in2="BackgroundImageFix" result="effect1_dropShadow_1790_27801"/>
<feBlend mode="normal" in="SourceGraphic" in2="effect1_dropShadow_1790_27801" result="shape"/>
</filter>
</defs>
</svg>
